<svg width="800px" height="600px" viewBox="0 0 24 24" fill="none" xmlns="http://www.w3.org/2000/svg">
  <rect width="24" height="24" fill="#E2E8F0"/>
  <path d="M4 6C4 4.89543 4.89543 4 6 4H18C19.1046 4 20 4.89543 20 6V8C20 9.10457 19.1046 10 18 10H6C4.89543 10 4 9.10457 4 8V6Z" stroke="#3B82F6" stroke-width="2"/>
  <path d="M4 16C4 14.8954 4.89543 14 6 14H18C19.1046 14 20 14.8954 20 16V18C20 19.1046 19.1046 20 18 20H6C4.89543 20 4 19.1046 4 18V16Z" stroke="#3B82F6" stroke-width="2"/>
  <path d="M12 10V14" stroke="#64748B" stroke-width="2"/>
  <circle cx="12" cy="12" r="2" fill="#3B82F6"/>
  <circle cx="7" cy="7" r="1" fill="#3B82F6"/>
  <circle cx="7" cy="17" r="1" fill="#3B82F6"/>
</svg>